# AST/ASF file generated using VICON BodyLanguage
# -----------------------------------------------
:version 1.10
:name VICON
:units
  mass 1.0
  length 0.45
  angle deg
:documentation
   .ast/.asf automatically generated from VICON data using
   VICON BodyBuilder and BodyLanguage model FoxedUp or BRILLIANT.MOD
:root
   order TX TY TZ RX RY RZ
   axis XYZ
   position 0 0 0  
   orientation 0 0 0 
:bonedata
  begin
     id 1 
     name lhipjoint
     direction 0.521452 -0.77106 0.36545 
     length 2.0933 
     axis 0 0 0  XYZ
  end
  begin
     id 2 
     name lfemur
     direction 0.34202 -0.939693 0  
     length 6.83441  
     axis 0 0 20  XYZ
    dof rx ry rz
    limits (-160.0 20.0)
           (-70.0 70.0)
           (-60.0 70.0)
  end
  begin
     id 3 
     name ltibia
     direction 0.34202 -0.939693 0   
     length 7.28749   
     axis 0 0 20   XYZ
    dof rx
    limits (-10.0 170.0)
  end
  begin
     id 4 
     name lfoot
     direction 0.100608 -0.276418 0.955757   
     length 1.52195   
     axis -90 7.62852e-016 20   XYZ
    dof rx rz
    limits (-45.0 90.0)
           (-70.0 20.0)
  end
  begin
     id 5 
     name ltoes
     direction 1.53558e-011 -4.21907e-011 1   
     length 0.770459   
     axis -90 7.62852e-016 20   XYZ
    dof rx
    limits (-90.0 20.0)
  end
  begin
     id 6 
     name rhipjoint
     direction -0.488071 -0.788702 0.373812   
     length 2.04648  
     axis 0 0 0  XYZ 
  end
  begin
     id 7 
     name rfemur
     direction -0.34202 -0.939693 0   
     length 6.92583   
     axis 0 0 -20   XYZ
    dof rx ry rz
    limits (-160.0 20.0)
           (-70.0 70.0)
           (-70.0 60.0)
  end
  begin
     id 8 
     name rtibia
     direction -0.34202 -0.939693 0   
     length 7.41043   
     axis 0 0 -20   XYZ
    dof rx
    limits (-10.0 170.0)
 end
 begin
     id 9 
     name rfoot
     direction -0.0784433 -0.215521 0.973343   
     length 1.67708  
     axis -90 -7.62852e-016 -20   XYZ
    dof rx rz
    limits (-45.0 90.0)
           (-20.0 70.0)
  end
  begin
     id 10 
     name rtoes
     direction -1.53551e-011 -4.21842e-011 1   
     length 0.849787   
     axis -90 -7.62852e-016 -20   XYZ
    dof rx
    limits (-90.0 20.0)
  end
  begin
     id 11 
     name lowerback
     direction -0.0122332 0.997575 -0.0685192   
     length 1.98724   
     axis 0 0 0   XYZ
    dof rx ry rz
    limits (-20.0 45.0)
           (-30.0 30.0)
           (-30.0 30.0)
  end
  begin
     id 12 
     name upperback
     direction 0.0182347 0.999724 -0.0148421   
     length 1.99029   
     axis 0 0 0   XYZ
    dof rx ry rz
    limits (-20.0 45.0)
           (-30.0 30.0)
           (-30.0 30.0)
  end
  begin
     id 13 
     name thorax
     direction 0.0242908 0.99956 0.0170184   
     length 1.99573   
     axis 0 0 0   XYZ
    dof rx ry rz
    limits (-20.0 45.0)
           (-30.0 30.0)
           (-30.0 30.0)
  end
  begin
     id 14 
     name lowerneck
     direction 0.0654488 0.985533 0.156338   
     length 1.4285   
     axis 0 0 0   XYZ
    dof rx ry rz
    limits (-20.0 45.0)
           (-30.0 30.0)
           (-30.0 30.0)
  end
  begin
     id 15 
     name upperneck
     direction -0.02953 0.998556 -0.0448842   
     length 1.44709   
     axis 0 0 0   XYZ
    dof rx ry rz
    limits (-20.0 45.0)
           (-30.0 30.0)
           (-30.0 30.0)
  end
  begin
     id 16
     name head
     direction -0.0155588 0.999386 -0.0314063  
     length 1.44689  
     axis 0 0 0   XYZ
    dof rx ry rz
    limits (-20.0 45.0)
           (-30.0 30.0)
           (-30.0 30.0)
  end
  begin
     id 17 
     name lclavicle
     direction 0.968229 0.236071 -0.0824755  
     length 3.60593  
     axis 0 0 0   XYZ
    dof ry rz
    limits (-20.0 10.0)
           (0.0 20.0)
  end
  begin
     id 18 
     name lhumerus
     direction 1 -4.48968e-011 7.8138e-029   
     length 5.06035   
     axis 180 -30 -90   XYZ
    dof rx ry rz
    limits (-60.0 90.0)
           (-90.0 90.0)
           (-90.0 90.0)
  end
  begin
     id 19
     name lradius
     direction 1 -4.48967e-011 9.02887e-028   
     length 3.1478   
     axis 180 -30 -90   XYZ
    dof rx
    limits (-10.0 170.0)
  end
  begin
     id 20
     name lwrist
     direction 1 -4.48961e-011 7.20928e-028   
     length 1.5739   
     axis -5.52449e-016 90 90   XYZ
    dof ry
    limits (-180.0 0.0)
 end
  begin
     id 21 
     name lhand
     direction 1 -4.48972e-011 1.44186e-027   
     length 0.606747   
     axis -9.20027e-016 90 90   XYZ
    dof rx rz
    limits (-90.0 90.0)
           (-45.0 45.0)
  end
  begin
     id 22 
     name lfingers
     direction 1 -4.48943e-011 2.88371e-027   
     length 0.489175   
     axis -1.84005e-015 90 90   XYZ
    dof rx
    limits (0.0 90.0)
  end
  begin
     id 23
     name lthumb
     direction 0.707107 -6.34917e-011 0.707107   
     length 0.70236   
     axis -90 45 2.85299e-015   XYZ
    dof rx rz
    limits (-45.0 45.0)
           (-45.0 45.0)
  end
  begin
     id 24 
     name rclavicle
     direction -0.978165 0.207816 0.0022268   
     length 3.35425  
     axis 0 0 0   XYZ 
    dof ry rz
    limits (-10.0 20.0)
           (-20.0 0.0)
  end
  begin
     id 25 
     name rhumerus
     direction -1 -4.48964e-011 -4.02159e-027  
     length 5.12273   
     axis 180 30 90   XYZ
    dof rx ry rz
    limits (-90.0 60.0)
           (-90.0 90.0)
           (-90.0 90.0)
  end
  begin
     id 26 
     name rradius
     direction -1 -4.48966e-011 1.62746e-027   
     length 3.422   
     axis 180 30 90   XYZ
    dof rx
    limits (-10.0 170.0)
  end
  begin
     id 27 
     name rwrist
     direction -1 -4.4896e-011 7.20928e-028   
     length 1.711   
     axis -5.52449e-016 -90 -90   XYZ
    dof ry
    limits (-180.0 0.0)
  end
  begin
     id 28
     name rhand
     direction -1 -4.48979e-011 1.44186e-027   
     length 0.704599   
     axis -9.20027e-016 -90 -90   XYZ
    dof rx rz
    limits (-90.0 90.0)
           (-45.0 45.0)
  end
  begin
     id 29
     name rfingers
     direction -1 -4.48962e-011 2.88371e-027   
     length 0.568066   
     axis -1.84005e-015 -90 -90   XYZ
    dof rx
    limits (0.0 90.0)
  end
  begin
     id 30
     name rthumb
     direction -0.707107 -6.34949e-011 0.707107   
     length 0.815633   
     axis -90 -45 -2.85299e-015   XYZ
    dof rx rz
    limits (-45.0 45.0)
           (-45.0 45.0)
  end
:hierarchy
  begin
    root lhipjoint rhipjoint lowerback
    lhipjoint lfemur
    lfemur ltibia
    ltibia lfoot
    lfoot ltoes
    rhipjoint rfemur
    rfemur rtibia
    rtibia rfoot
    rfoot rtoes
    lowerback upperback
    upperback thorax
    thorax lowerneck lclavicle rclavicle
    lowerneck upperneck
    upperneck head
    lclavicle lhumerus
    lhumerus lradius
    lradius lwrist
    lwrist lhand lthumb
    lhand lfingers
    rclavicle rhumerus
    rhumerus rradius
    rradius rwrist
    rwrist rhand rthumb
    rhand rfingers
  end

#!OML:ASF Z:\Project 1\Capture day 1\Session 1\Male1.ASF
:FULLY-SPECIFIED
:DEGREES
346
root 24.9808 16.4878 -6.08594 -171.624 31.4944 -177.515
lowerback -8.71418 -1.46584 -0.193487
upperback -0.918101 -1.90437 0.682307
thorax 3.9619 -0.927743 0.589023
lowerneck 1.30238 -6.18756 -2.55513
upperneck -14.5037 -7.64789 3.05932
head -4.82577 -3.56331 1.80977
rclavicle -8.04892e-014 -4.57205e-015
rhumerus 69.9087 0.0955904 -46.4909
rradius 34.2552
rwrist 35.87
rhand -16.5502 19.2807
rfingers 7.12502
rthumb 9.66936 -10.4774
lclavicle -8.04892e-014 -4.57205e-015
lhumerus -23.4353 9.58571 83.7623
lradius 14.2617
lwrist -14.7005
lhand -10.7072 44.0135
lfingers 7.12502
lthumb 15.3025 73.4274
rfemur -10.3627 -5.02103 26.6233
rtibia 16.3815
rfoot -11.7403 -8.0501
rtoes -2.05732
lfemur 12.7472 -2.94221 -9.88042
ltibia 18.6454
lfoot 10.3118 7.53703
ltoes 54.1936
347
root 24.9776 16.4865 -6.0872 -171.56 31.4878 -177.466
lowerback -8.7602 -1.51015 -0.155813
upperback -0.863147 -1.97102 0.735702
thorax 4.04624 -0.961197 0.613075
lowerneck 1.09476 -6.16854 -2.62514
upperneck -14.4518 -7.62064 3.0237
head -4.76425 -3.54238 1.79721
rclavicle 1.23893e-013 1.2921e-014
rhumerus 70.2135 0.137243 -46.4512
rradius 34.1061
rwrist 35.831
rhand -16.514 19.3682
rfingers 7.12502
rthumb 9.70431 -10.3883
lclavicle 1.23893e-013 1.2921e-014
lhumerus -23.2334 10.1265 83.6901
lradius 14.1896
lwrist -15.0723
lhand -10.6489 43.812
lfingers 7.12502
lthumb 15.3587 73.2216
rfemur -10.3714 -5.24917 26.7049
rtibia 16.3365
rfoot -11.6916 -8.04044
rtoes -1.73583
lfemur 12.6791 -3.01681 -9.8475
ltibia 18.7071
lfoot 10.2698 7.74779
ltoes 54.4691
348
root 24.9732 16.4846 -6.08875 -171.571 31.48 -177.4
lowerback -8.70189 -1.49026 0.0204547
upperback -0.720783 -1.96749 0.722215
thorax 4.15512 -0.958875 0.499831
lowerneck 0.441119 -6.21485 -2.79289
upperneck -14.201 -7.64933 3.1418
head -4.52835 -3.54995 1.82741
rclavicle 4.06142e-014 -4.77083e-015
rhumerus 70.4728 -0.0310277 -46.5143
rradius 33.9773
rwrist 35.884
rhand -16.4662 19.4302
rfingers 7.12502
rthumb 9.75043 -10.3241
lclavicle 4.06142e-014 -4.77083e-015
lhumerus -22.8815 10.2548 83.729
lradius 14.1853
lwrist -15.1203
lhand -10.5651 43.7486
lfingers 7.12502
lthumb 15.4394 73.1519
rfemur -10.2814 -5.27532 26.7664
rtibia 16.2859
rfoot -11.6195 -8.12036
rtoes -4.26012
lfemur 12.7012 -3.02882 -9.78425
ltibia 18.7631
lfoot 10.2191 7.75287
ltoes 54.5471
349
root 24.9721 16.4893 -6.08895 -171.507 31.3029 -177.436
lowerback -8.7106 -1.53553 0.0366975
upperback -0.816116 -2.02411 0.699815
thorax 4.06004 -0.984955 0.46197
lowerneck 0.672446 -6.25137 -3.10335
upperneck -14.1762 -7.69987 3.41949
head -4.53895 -3.57798 1.98527
rclavicle 6.18655e-014 -1.39149e-014
rhumerus 70.474 0.0102996 -46.593
rradius 33.7973
rwrist 35.9651
rhand -16.4279 19.5023
rfingers 7.12502
rthumb 9.7873 -10.2502
lclavicle 6.18655e-014 -1.39149e-014
lhumerus -23.0292 9.66283 83.8867
lradius 14.3878
lwrist -14.4973
lhand -10.5657 44.004
lfingers 7.12502
lthumb 15.4388 73.4074
rfemur -10.3181 -5.03423 26.7361
rtibia 16.1869
rfoot -11.4254 -8.46325
rtoes -1.51046
lfemur 12.5201 -3.08391 -9.75033
ltibia 18.8214
lfoot 10.2794 7.54984
ltoes 54.4304
350
root 24.9724 16.4878 -6.08956 -171.583 31.3455 -177.508
lowerback -8.69869 -1.54008 -0.0388863
upperback -0.693735 -2.02879 0.707269
thorax 4.18363 -0.990701 0.509803
lowerneck 0.260976 -6.27565 -3.44721
upperneck -14.0686 -7.69688 3.66339
head -4.39446 -3.56548 2.1024
rclavicle -4.77704e-015 5.1684e-015
rhumerus 70.783 -0.155967 -46.7229
rradius 33.6251
rwrist 36.0641
rhand -16.407 19.4915
rfingers 7.12502
rthumb 9.80751 -10.2601
lclavicle -4.77704e-015 5.1684e-015
lhumerus -22.9239 8.08468 84.4613
lradius 14.8619
lwrist -12.79
lhand -10.6912 44.6602
lfingers 7.12502
lthumb 15.3179 74.0729
rfemur -10.2485 -4.92544 26.6654
rtibia 16.1348
rfoot -11.3623 -8.58472
rtoes -3.89417
lfemur 12.5749 -2.98249 -9.78999
ltibia 18.8263
lfoot 10.326 7.28973
ltoes 54.1937
351
root 24.97 16.4889 -6.09171 -171.542 31.2526 -177.49
lowerback -8.73867 -1.50919 -0.0191648
upperback -0.71161 -1.98785 0.689844
thorax 4.18563 -0.969468 0.484925
lowerneck 0.330392 -6.30847 -3.4254
upperneck -14.0818 -7.74217 3.67901
head -4.41127 -3.59037 2.10893
rclavicle -7.56624e-015 -8.34896e-015
rhumerus 70.7197 -0.370181 -46.8458
rradius 33.4698
rwrist 36.1737
rhand -16.4037 19.4392
rfingers 7.12502
rthumb 9.81068 -10.3123
lclavicle -7.56624e-015 -8.34896e-015
lhumerus -23.0282 6.64851 84.9133
lradius 15.232
lwrist -11.5428
lhand -10.7998 44.983
lfingers 7.12502
lthumb 15.2133 74.4036
rfemur -10.3072 -4.9516 26.6833
rtibia 16.1662
rfoot -11.2843 -8.68293
rtoes -2.48157
lfemur 12.5425 -3.06955 -9.77198
ltibia 18.7662
lfoot 10.449 7.10911
ltoes 53.9749
352
root 24.9674 16.489 -6.0942 -171.516 31.2345 -177.471
lowerback -8.76683 -1.51674 -0.0363233
upperback -0.695155 -1.99826 0.727687
thorax 4.22058 -0.975275 0.531488
lowerneck 0.222773 -6.28785 -3.43144
upperneck -14.0483 -7.71557 3.61959
head -4.38119 -3.57302 2.08287
rclavicle -5.67095e-014 -7.55382e-015
rhumerus 70.8772 -0.40561 -46.8898
rradius 33.3592
rwrist 36.2909
rhand -16.4119 19.4995
rfingers 7.12502
rthumb 9.80276 -10.2524
lclavicle -5.67095e-014 -7.55382e-015
lhumerus -22.9468 6.88365 84.9665
lradius 15.2276
lwrist -11.7649
lhand -10.7502 44.5313
lfingers 7.12502
lthumb 15.2611 73.9483
rfemur -10.3651 -4.97864 26.6939
rtibia 16.2608
rfoot -11.2942 -8.65799
rtoes -3.63525
lfemur 12.5717 -3.01569 -9.73255
ltibia 18.6661
lfoot 10.5687 6.81441
ltoes 53.5459
353
root 24.9672 16.4891 -6.09666 -171.592 31.2872 -177.645
lowerback -8.78686 -1.5898 -0.24929
upperback -0.690843 -2.07451 0.710516
thorax 4.24417 -1.01701 0.623166
lowerneck 0.182387 -6.23426 -3.30421
upperneck -14.0636 -7.6463 3.51224
head -4.3911 -3.53928 2.02187
rclavicle -2.26739e-014 -2.78299e-015
rhumerus 71.1847 -0.291457 -47.227
rradius 33.1536
rwrist 36.557
rhand -16.4886 19.6219
rfingers 7.12502
rthumb 9.72874 -10.1335
lclavicle -2.26739e-014 -2.78299e-015
lhumerus -22.9204 7.2235 84.8989
lradius 15.2592
lwrist -11.9002
lhand -10.8217 44.0272
lfingers 7.12502
lthumb 15.1922 73.4494
rfemur -10.3997 -4.98596 26.5231
rtibia 16.3187
rfoot -11.3759 -8.5812
rtoes -1.89054
lfemur 12.5988 -3.02999 -9.93089
ltibia 18.5917
lfoot 10.6067 6.70258
ltoes 53.1865
354
root 24.968 16.4912 -6.09908 -171.624 31.276 -177.791
lowerback -8.80939 -1.6418 -0.403057
upperback -0.746467 -2.12416 0.653997
thorax 4.2031 -1.04305 0.645048
lowerneck 0.39828 -6.22217 -2.89242
upperneck -14.1004 -7.67364 3.10334
head -4.47968 -3.55814 1.82678
rclavicle -8.5465e-014 -1.35174e-014
rhumerus 71.2749 -0.268105 -47.6767
rradius 32.91
rwrist 36.8531
rhand -16.495 19.6466
rfingers 7.12502
rthumb 9.7226 -10.109
lclavicle -8.5465e-014 -1.35174e-014
lhumerus -22.9841 7.19076 84.8767
lradius 15.3024
lwrist -11.8369
lhand -10.9308 43.7503
lfingers 7.12502
lthumb 15.0872 73.1805
rfemur -10.4659 -4.90814 26.3906
rtibia 16.3723
rfoot -11.3759 -8.70059
rtoes -1.33916
lfemur 12.5501 -3.0287 -10.0621
ltibia 18.5212
lfoot 10.7681 6.60875
ltoes 52.9527
355
root 24.9652 16.4902 -6.10129 -171.657 31.2891 -177.694
lowerback -8.72162 -1.59806 -0.367465
upperback -0.760074 -2.0707 0.683164
thorax 4.13883 -1.01615 0.664559
lowerneck 0.684593 -6.31143 -2.74258
upperneck -14.2021 -7.83218 2.84349
head -4.58593 -3.63302 1.73602
rclavicle -2.42642e-014 -1.39149e-015
rhumerus 71.1758 -0.371847 -47.7898
rradius 32.8621
rwrist 36.9274
rhand -16.5577 19.5179
rfingers 7.12502
rthumb 9.66209 -10.2405
lclavicle -2.42642e-014 -1.39149e-015
lhumerus -22.9759 7.15871 85.032
lradius 15.2943
lwrist -12.0447
lhand -10.9538 43.7905
lfingers 7.12502
lthumb 15.065 73.2224
rfemur -10.3808 -4.84353 26.4687
rtibia 16.3974
rfoot -11.2883 -8.82908
rtoes -2.386
lfemur 12.6598 -2.86611 -9.92408
ltibia 18.453
lfoot 10.9562 6.34608
ltoes 52.6128
356
root 24.9632 16.4881 -6.1021 -171.682 31.2838 -177.581
lowerback -8.64491 -1.57311 -0.390646
upperback -0.733651 -2.04075 0.781878
thorax 4.12743 -1.00306 0.785136
lowerneck 0.76976 -6.35036 -2.89284
upperneck -14.2778 -7.89894 2.79785
head -4.62438 -3.65388 1.75491
rclavicle 3.80176e-014 1.19271e-015
rhumerus 71.1568 -0.441394 -47.5149
rradius 32.9043
rwrist 36.7663
rhand -16.57 19.4914
rfingers 7.12502
rthumb 9.65028 -10.2675
lclavicle 3.80176e-014 1.19271e-015
lhumerus -22.8883 7.23767 85.3191
lradius 15.3193
lwrist -12.3737
lhand -11.1203 43.9439
lfingers 7.12502
lthumb 14.9046 73.3877
rfemur -10.2614 -4.65471 26.5658
rtibia 16.3686
rfoot -11.1214 -9.06641
rtoes -4.44662
lfemur 12.7767 -2.76381 -9.777
ltibia 18.4088
lfoot 11.1965 6.15804
ltoes 52.457
357
root 24.9614 16.4894 -6.10259 -171.67 31.1508 -177.559
lowerback -8.61646 -1.59169 -0.398573
upperback -0.742155 -2.06533 0.802627
thorax 4.1042 -1.0154 0.809003
lowerneck 0.75187 -6.37359 -3.02
upperneck -14.2767 -7.92917 2.84799
head -4.61181 -3.66393 1.79337
rclavicle -3.89494e-014 1.03368e-014
rhumerus 71.1998 -0.512444 -47.3048
rradius 32.7551
rwrist 36.6788
rhand -16.5272 19.6795
rfingers 7.12502
rthumb 9.69155 -10.0776
lclavicle -3.89494e-014 1.03368e-014
lhumerus -22.8168 7.30365 85.4614
lradius 15.3177
lwrist -12.6208
lhand -11.1905 43.576
lfingers 7.12502
lthumb 14.837 73.0248
rfemur -10.2237 -4.38374 26.5711
rtibia 16.3157
rfoot -10.9985 -9.35867
rtoes -1.88243
lfemur 12.7579 -2.95982 -9.75561
ltibia 18.3748
lfoot 11.3095 6.45967
ltoes 52.1457
358
root 24.9595 16.4886 -6.10477 -171.655 31.1668 -177.526
lowerback -8.62239 -1.46871 -0.329691
upperback -0.837062 -1.89985 0.69241
thorax 3.99962 -0.929704 0.677505
lowerneck 1.15054 -6.46768 -2.81522
upperneck -14.3295 -8.07586 2.80452
head -4.71671 -3.75001 1.76992
rclavicle -4.32232e-014 5.56597e-015
rhumerus 70.8797 -0.667946 -47.2511
rradius 32.582
rwrist 36.6724
rhand -16.4947 19.8536
rfingers 7.12502
rthumb 9.72289 -9.90195
lclavicle -4.32232e-014 5.56597e-015
lhumerus -22.9393 7.09766 85.4039
lradius 15.2687
lwrist -12.7999
lhand -11.066 43.208
lfingers 7.12502
lthumb 14.9569 72.6479
rfemur -10.1926 -4.18303 26.5785
rtibia 16.3065
rfoot -11.1163 -9.30245
rtoes 2.9956
lfemur 12.816 -3.04447 -9.74607
ltibia 18.2847
lfoot 11.282 6.3869
ltoes 52.6583
359
root 24.9582 16.4895 -6.10604 -171.657 31.1398 -177.498
lowerback -8.61071 -1.45084 -0.296045
upperback -0.802037 -1.88088 0.694444
thorax 4.02815 -0.920428 0.662754
lowerneck 0.98956 -6.47593 -2.77913
upperneck -14.2752 -8.09048 2.68916
head -4.67082 -3.75206 1.71589
rclavicle 4.57826e-014 6.55989e-015
rhumerus 70.8842 -0.701808 -47.0108
rradius 32.5827
rwrist 36.5151
rhand -16.4394 19.9974
rfingers 7.12502
rthumb 9.77622 -9.75564
lclavicle 4.57826e-014 6.55989e-015
lhumerus -22.8511 7.07863 85.4497
lradius 15.2848
lwrist -12.7745
lhand -10.9197 43.2609
lfingers 7.12502
lthumb 15.0979 72.6903
rfemur -10.1914 -4.02341 26.5943
rtibia 16.339
rfoot -10.8861 -9.61848
rtoes -2.0985
lfemur 12.8911 -3.2294 -9.7791
ltibia 18.1604
lfoot 11.3715 6.85692
ltoes 52.697
